<?xml version="1.0" encoding="UTF-8"?>
<svg version="1.1" xmlns="http://www.w3.org/2000/svg" width="423" height="302">
<path d="M0 0 C3.75376152 1.25125384 4.24073289 2.5652404 6 6 C6 6.66 6 7.32 6 8 C6.66 8 7.32 8 8 8 C8.5775 9.03125 9.155 10.0625 9.75 11.125 C11.15518443 13.5991283 12.63215318 15.97240014 14.25 18.3125 C16 21 16 21 16 23 C16.66 23 17.32 23 18 23 C18.3403125 23.65484375 18.680625 24.3096875 19.03125 24.984375 C21.78744596 30.17423336 24.6924001 35.14037245 28 40 C31.0662134 44.51832578 33.76339509 49.08780184 36.31640625 53.91015625 C37.98522703 56.97288766 39.73899676 59.96787651 41.52441406 62.96337891 C57.13340813 89.15785075 70.80857045 115.80620315 70 147 C70.00644531 147.74894531 70.01289063 148.49789062 70.01953125 149.26953125 C69.58706923 160.36938981 61.62981868 172.38772114 54 180 C53.34 180 52.68 180 52 180 C52 180.66 52 181.32 52 182 C50.03687797 183.65024946 48.08765 185.14554109 46 186.625 C45.38294189 187.06650391 44.76588379 187.50800781 44.13012695 187.96289062 C38.71530515 191.72384118 33.03786222 194.70700875 27.06835938 197.48681641 C23.37747294 199.00069282 23.37747294 199.00069282 21 202 C16.07324223 203.22017833 11.16343228 203.11800815 6.125 203.0625 C5.34125 203.05798828 4.5575 203.05347656 3.75 203.04882812 C1.83329986 203.03714093 -0.08336048 203.01920908 -2 203 C-2.4434375 202.10023438 -2.886875 201.20046875 -3.34375 200.2734375 C-4.66165932 197.66870162 -6.03675014 195.14816802 -7.5 192.625 C-16.59803109 176.20482978 -16.33783394 158.1022673 -13 140 C-12.66403686 138.00044008 -12.32995856 136.00055954 -12 134 C-11.34 134 -10.68 134 -10 134 C-9.938125 133.05125 -9.87625 132.1025 -9.8125 131.125 C-9.10828237 125.92872751 -6.47950619 121.54728625 -4 117 C-3.34 117 -2.68 117 -2 117 C-1.9906543 117.76328613 -1.98130859 118.52657227 -1.97167969 119.31298828 C-1.60411968 143.35213378 -0.61650997 167.56586168 11.828125 188.8203125 C13 191 13 191 13 193 C13.66 193 14.32 193 15 193 C16.38232443 194.62626404 17.71937515 196.2925002 19 198 C27.85992453 194.0923477 32.58009238 184.59890564 36 176 C38.89809063 167.69904042 39.54553278 159.88013613 39.5 151.125 C39.49500488 149.85865723 39.49000977 148.59231445 39.48486328 147.28759766 C39.19738297 131.59117246 36.41620201 117.3867119 28 104 C26.68851186 101.63332285 25.39611984 99.26300596 24.125 96.875 C23.62311157 95.94046997 23.62311157 95.94046997 23.11108398 94.98706055 C20.12071513 89.36169175 17.41060832 83.61582764 14.78955078 77.81005859 C12.85409963 73.58051363 10.60823888 69.86651037 8 66 C6.67505159 63.57747499 5.45765532 61.10769054 4.25 58.625 C3.93417969 57.98433594 3.61835938 57.34367187 3.29296875 56.68359375 C2.52492134 55.12422477 1.76192315 53.5623705 1 52 C-2.02303563 54.78999648 -3.9445368 57.40732129 -5.8125 61.0625 C-7.82931123 64.89899054 -9.96244679 68.52540467 -12.375 72.125 C-16.65191889 78.73392544 -19.82380202 85.80070865 -23.06542969 92.95458984 C-23.91232041 94.80810356 -24.78665346 96.6490177 -25.6640625 98.48828125 C-30.95599537 109.60134028 -35.07465797 121.04266447 -38 133 C-38.20625 133.76054687 -38.4125 134.52109375 -38.625 135.3046875 C-42.89672939 152.92557124 -39.48578698 170.49531343 -30.234375 185.8984375 C-29 188 -29 188 -28 191 C-27.34 191 -26.68 191 -26 191 C-26 191.66 -26 192.32 -26 193 C-25.34 193 -24.68 193 -24 193 C-24 193.66 -24 194.32 -24 195 C-21.34771188 196.07525194 -18.71631546 197.09456151 -16 198 C-16 198.66 -16 199.32 -16 200 C-26.84706275 197.26423639 -36.81172157 192.36111583 -46 186 C-46 185.34 -46 184.68 -46 184 C-47.65 183.34 -49.3 182.68 -51 182 C-51 181.34 -51 180.68 -51 180 C-51.99 179.67 -52.98 179.34 -54 179 C-54 178.34 -54 177.68 -54 177 C-54.99 176.67 -55.98 176.34 -57 176 C-59.63143483 172.5260176 -61.79049332 168.75313463 -64 165 C-64.42023438 164.2884375 -64.84046875 163.576875 -65.2734375 162.84375 C-72.28322742 149.98368429 -70.95640761 135.34193165 -67.13671875 121.7265625 C-64.77381274 113.98012838 -61.49628374 106.76300509 -58.05078125 99.4453125 C-57.1249022 97.29066459 -56.48421702 95.28805844 -56 93 C-55.34 93 -54.68 93 -54 93 C-53.92910156 92.195625 -53.85820312 91.39125 -53.78515625 90.5625 C-52.75652662 85.89528498 -50.71545239 82.17316849 -48.4375 78 C-47.76412598 76.74413086 -47.76412598 76.74413086 -47.07714844 75.46289062 C-43.74864294 69.28710934 -40.30559713 63.18131752 -36.78515625 57.11328125 C-35.19048317 54.33219931 -33.68019419 51.52404424 -32.1875 48.6875 C-29.09458684 42.95325605 -25.54134456 37.53590247 -21.95776367 32.1003418 C-19.89359385 28.9634943 -17.91639337 25.85049568 -16.08203125 22.5703125 C-13.52106786 18.00534321 -10.39951309 13.84357603 -7.3125 9.625 C-6.71888672 8.80644531 -6.12527344 7.98789062 -5.51367188 7.14453125 C-1.16636588 1.16636588 -1.16636588 1.16636588 0 0 Z " fill="#099A56" transform="translate(214,15)"/>
<path d="M0 0 C6.85624785 13.71249569 -0.34948085 40.2850544 -4.984375 54.20703125 C-10.08937031 68.24576836 -17.72983851 81.605611 -26 94 C-26.70125 95.11375 -27.4025 96.2275 -28.125 97.375 C-30.17585158 100.24619221 -32.47661463 102.53816062 -35 105 C-35.90589605 106.09592597 -36.80181145 107.20017937 -37.6875 108.3125 C-38.8321875 109.6428125 -38.8321875 109.6428125 -40 111 C-40.66 111 -41.32 111 -42 111 C-42.495 112.485 -42.495 112.485 -43 114 C-44.9375 116.1875 -44.9375 116.1875 -47 118 C-47.66 118 -48.32 118 -49 118 C-49.495 119.485 -49.495 119.485 -50 121 C-52.0625 121.6875 -52.0625 121.6875 -54 122 C-54 122.66 -54 123.32 -54 124 C-56.15425695 125.64395779 -58.29720759 127.14701959 -60.5625 128.625 C-61.23708252 129.0679541 -61.91166504 129.5109082 -62.60668945 129.96728516 C-73.18257698 136.80682537 -83.81928126 142.53542431 -96 146 C-97.13695312 146.33644531 -97.13695312 146.33644531 -98.296875 146.6796875 C-99.85991473 147.1360951 -101.42906316 147.57156268 -103 148 C-103 147.34 -103 146.68 -103 146 C-102.34 146 -101.68 146 -101 146 C-101 145.34 -101 144.68 -101 144 C-100.21625 143.9175 -99.4325 143.835 -98.625 143.75 C-95.85250896 143.27193661 -95.85250896 143.27193661 -94.6875 140.9375 C-94.460625 140.298125 -94.23375 139.65875 -94 139 C-93.01 139 -92.02 139 -91 139 C-91 138.34 -91 137.68 -91 137 C-90.34 137 -89.68 137 -89 137 C-88.67 136.01 -88.34 135.02 -88 134 C-87.13375 133.319375 -86.2675 132.63875 -85.375 131.9375 C-73.49409735 122.35338283 -65.93276091 104.02999982 -64.19628906 89.19042969 C-62.83284546 73.97548439 -64.19056407 59.29875882 -69.29296875 44.875 C-70.06519922 41.73488053 -70.05157292 40.04131383 -69 37 C-67.72265625 35.4453125 -67.72265625 35.4453125 -66.0625 34.125 C-65.44117188 33.63 -64.81984375 33.135 -64.1796875 32.625 C-52.61057692 24 -52.61057692 24 -50 24 C-50 23.34 -50 22.68 -50 22 C-48.57324219 20.90600586 -48.57324219 20.90600586 -46.546875 19.71484375 C-45.79172607 19.27068115 -45.03657715 18.82651855 -44.25854492 18.36889648 C-43.4307251 17.89653564 -42.60290527 17.4241748 -41.75 16.9375 C-40.90477783 16.451604 -40.05955566 15.96570801 -39.1887207 15.46508789 C-10.65216745 -0.62659809 -10.65216745 -0.62659809 0 0 Z " fill="#82DF3E" transform="translate(357,74)"/>
<path d="M0 0 C8.6330939 1.88456312 16.32019868 5.23455864 24.19824219 9.11669922 C25.8348623 9.91904225 27.48326227 10.69724424 29.1328125 11.47265625 C40.81110797 17.06266702 51.32721452 24.29029856 61.57421875 32.15234375 C63.33804112 33.49580266 65.15518271 34.77012181 67 36 C67 36.66 67 37.32 67 38 C68.485 38.495 68.485 38.495 70 39 C69.40174403 43.15695384 68.42754957 46.90862956 67.0625 50.875 C61.16325712 69.62386646 61.16790997 90.24566363 68.9765625 108.390625 C70 111 70 111 70 114 C70.66 114 71.32 114 72 114 C72.99 117.465 72.99 117.465 74 121 C74.66 121 75.32 121 76 121 C77.26171875 122.72265625 77.26171875 122.72265625 78.6875 125.0625 C81.8571352 129.99217833 85.63536016 135.31768008 91 138 C91 138.66 91 139.32 91 140 C92.0209375 140.3403125 92.0209375 140.3403125 93.0625 140.6875 C96.6988709 142.31226146 100.02829263 144.32803257 103 147 C103 147.66 103 148.32 103 149 C97.62094621 148.36209939 92.98952736 146.61751753 88 144.625 C87.21882813 144.32078125 86.43765625 144.0165625 85.6328125 143.703125 C81.30602579 141.99863327 77.12698859 140.15608699 73 138 C73 137.34 73 136.68 73 136 C72.113125 135.731875 71.22625 135.46375 70.3125 135.1875 C67.2090334 134.0749365 64.68889315 132.89804222 62 131 C62 130.34 62 129.68 62 129 C61.34 128.79375 60.68 128.5875 60 128.375 C55.92819814 126.50875748 52.31203002 124.02438473 49 121 C49 120.34 49 119.68 49 119 C48.40316406 118.90203125 47.80632812 118.8040625 47.19140625 118.703125 C44.53531072 117.85090183 43.69780247 116.89297692 41.9375 114.75 C41.33808594 114.03070313 40.73867187 113.31140625 40.12109375 112.5703125 C39.42113281 111.72210938 38.72117188 110.87390625 38 110 C37.11815867 108.97460311 36.2339002 107.95128163 35.34765625 106.9296875 C20 89.17351554 20 89.17351554 20 84 C19.34 84 18.68 84 18 84 C16.65929682 81.39939496 15.32726646 78.79495084 14 76.1875 C13.42765625 75.08051758 13.42765625 75.08051758 12.84375 73.95117188 C12.30234375 72.88286133 12.30234375 72.88286133 11.75 71.79296875 C11.41484375 71.1383667 11.0796875 70.48376465 10.734375 69.80932617 C10 68 10 68 10 65 C9.34 65 8.68 65 8 65 C7.80664062 64.33613281 7.61328125 63.67226562 7.4140625 62.98828125 C6.11102361 58.56956026 4.77335465 54.25605116 3 50 C-1.1181837 38.52442883 -1.17956964 26.74401889 -1.1875 14.6875 C-1.18830566 13.47618408 -1.18911133 12.26486816 -1.18994141 11.0168457 C-1.13410299 2.26820597 -1.13410299 2.26820597 0 0 Z " fill="#82DF3F" transform="translate(72,73)"/>
<path d="M0 0 C0.66 1.98 1.32 3.96 2 6 C2.66 6 3.32 6 4 6 C5.17361494 7.66138941 6.26425263 9.38179483 7.3125 11.125 C9.36125805 14.45530335 11.36488321 17.61501619 13.9375 20.5625 C16 23 16 23 16 25 C16.66 25 17.32 25 18 25 C19.33203125 26.57421875 19.33203125 26.57421875 20.8125 28.6875 C25.85469679 35.61747578 32.16236828 41.06053741 38.9375 46.25 C39.618125 46.8275 40.29875 47.405 41 48 C41 48.66 41 49.32 41 50 C42.65 50.66 44.3 51.32 46 52 C46 52.66 46 53.32 46 54 C46.7321875 54.27457031 47.464375 54.54914063 48.21875 54.83203125 C50.84137734 55.93338739 53.09210046 57.18256279 55.5 58.6875 C61.53523496 62.379751 67.74977381 65.68875164 74 69 C74 69.99 74 70.98 74 72 C45.2199003 78.73406233 15.27581399 75.70011473 -11 62 C-11 61.34 -11 60.68 -11 60 C-11.67417969 59.94714844 -12.34835938 59.89429688 -13.04296875 59.83984375 C-17.21266574 58.65558371 -19.97978127 56.26368398 -23.3125 53.5625 C-23.95767578 53.05912109 -24.60285156 52.55574219 -25.26757812 52.03710938 C-26.88920626 50.7449549 -28.45037352 49.37767875 -30 48 C-30 47.34 -30 46.68 -30 46 C-30.5775 45.7525 -31.155 45.505 -31.75 45.25 C-34.32939979 43.81700012 -36.06121592 42.21575324 -38 40 C-38 39.34 -38 38.68 -38 38 C-38.66 38 -39.32 38 -40 38 C-41.67991223 36.09952375 -43.22318631 34.20616179 -44.75 32.1875 C-45.19956055 31.59727051 -45.64912109 31.00704102 -46.11230469 30.39892578 C-49.9895677 25.20551481 -53.05717883 19.76925959 -56 14 C-57.62596725 11.10023352 -59.2589854 8.20466165 -60.8984375 5.3125 C-62 3 -62 3 -62 0 C-41.57772346 -5.18269253 -20.53551375 -3.89386717 0 0 Z " fill="#82DF3E" transform="translate(79,156)"/>
<path d="M0 0 C1.57442871 0.00012085 1.57442871 0.00012085 3.18066406 0.00024414 C11.81909862 0.0639791 19.69117153 1.05626729 28.0625 3.1875 C27.51326956 8.00608175 26.03846384 11.83959819 23.75 16.0625 C23.23409302 17.02337524 23.23409302 17.02337524 22.70776367 18.00366211 C18.28474661 25.95161682 12.72834257 33.09581626 7.0625 40.1875 C6.5989209 40.78030762 6.1353418 41.37311523 5.65771484 41.98388672 C4.50657898 43.42417644 3.28994305 44.81166141 2.0625 46.1875 C1.4025 46.1875 0.7425 46.1875 0.0625 46.1875 C-0.2675 47.1775 -0.5975 48.1675 -0.9375 49.1875 C-15.855103 63.1875 -15.855103 63.1875 -21.9375 63.1875 C-21.9375 63.8475 -21.9375 64.5075 -21.9375 65.1875 C-31.74818046 69.72334707 -41.36811739 73.71302101 -51.9375 76.1875 C-52.88882813 76.41308594 -53.84015625 76.63867188 -54.8203125 76.87109375 C-71.84845498 80.1632013 -90.12473319 79.07270609 -106.9375 75.1875 C-107.2675 74.1975 -107.5975 73.2075 -107.9375 72.1875 C-106.33717863 71.34680585 -104.73208829 70.51518495 -103.125 69.6875 C-101.78501953 68.99140625 -101.78501953 68.99140625 -100.41796875 68.28125 C-97.9375 67.1875 -97.9375 67.1875 -94.9375 67.1875 C-94.9375 66.5275 -94.9375 65.8675 -94.9375 65.1875 C-91.3249638 63.33922566 -87.7285119 61.63700455 -83.9375 60.1875 C-83.9375 59.5275 -83.9375 58.8675 -83.9375 58.1875 C-82.109375 56.75 -82.109375 56.75 -79.6875 55.1875 C-78.89859375 54.671875 -78.1096875 54.15625 -77.296875 53.625 C-75.21679114 52.35766414 -73.13438285 51.2355542 -70.9375 50.1875 C-70.9375 49.5275 -70.9375 48.8675 -70.9375 48.1875 C-69.36080631 46.81734736 -67.72506162 45.51458298 -66.0625 44.25 C-63.05562455 41.95843538 -61.04695975 40.35168962 -58.9375 37.1875 C-58.2775 37.1875 -57.6175 37.1875 -56.9375 37.1875 C-56.67582031 36.60742188 -56.41414063 36.02734375 -56.14453125 35.4296875 C-54.8669858 33.05651245 -53.43164053 31.3074157 -51.625 29.3125 C-51.00753906 28.62027344 -50.39007813 27.92804688 -49.75390625 27.21484375 C-49.15449219 26.54582031 -48.55507813 25.87679687 -47.9375 25.1875 C-44.28415854 21.1013113 -44.28415854 21.1013113 -41.9375 16.1875 C-41.2775 16.1875 -40.6175 16.1875 -39.9375 16.1875 C-39.6075 14.8675 -39.2775 13.5475 -38.9375 12.1875 C-38.2775 12.1875 -37.6175 12.1875 -36.9375 12.1875 C-36.834375 11.630625 -36.73125 11.07375 -36.625 10.5 C-35.70931869 7.41998106 -35.07924387 5.65375052 -32.9375 3.1875 C-22.81151168 -0.42753614 -10.61318216 -0.0076611 0 0 Z " fill="#83DF40" transform="translate(382.9375,152.8125)"/>
<path d="M0 0 C0 0.66 0 1.32 0 2 C-0.69971924 2.13575439 -1.39943848 2.27150879 -2.12036133 2.41137695 C-5.35191492 3.04085195 -8.58219652 3.67664218 -11.8125 4.3125 C-12.91271484 4.52583984 -14.01292969 4.73917969 -15.14648438 4.95898438 C-31.70429573 8.23147216 -47.03495944 12.80159126 -61.5625 21.5 C-75.33354944 29.72789884 -89.42512018 34.41859308 -105 38 C-105.70882324 38.16661133 -106.41764648 38.33322266 -107.14794922 38.50488281 C-122.78879862 42.07423328 -142.17636576 44.38821261 -157 37 C-159.13670613 35.44161722 -160.40153312 34.13128918 -162 32 C-159.68676778 25.06030334 -150.21909012 21.4804166 -144.0625 18.375 C-141.71599337 17.22831619 -139.36539491 16.1058952 -137 15 C-136.1764502 14.60466064 -135.35290039 14.20932129 -134.50439453 13.80200195 C-128.05011895 10.76560829 -121.60342522 8.40176263 -114.75 6.4375 C-113.19962036 5.99144409 -113.19962036 5.99144409 -111.61791992 5.53637695 C-76.26669698 -4.31129118 -36.13999841 -6.81076371 0 0 Z " fill="#0B9B57" transform="translate(209,235)"/>
<path d="M0 0 C0.99 0.66 1.98 1.32 3 2 C1.47305074 5.88677994 -0.47907299 7.77247475 -4 10 C-11.18249256 12.55248714 -18.09628151 13.55166833 -25.6875 13.5 C-26.6679126 13.49572998 -27.6483252 13.49145996 -28.65844727 13.48706055 C-49.28116433 13.02383101 -70.5058723 6.93985243 -89 -2 C-91.32414513 -3.02343935 -93.6604295 -4.01218134 -96 -5 C-96 -5.66 -96 -6.32 -96 -7 C-96.64710938 -7.25136719 -97.29421875 -7.50273437 -97.9609375 -7.76171875 C-100.3240128 -8.72456563 -102.64856304 -9.7274277 -104.9765625 -10.76953125 C-122.80228299 -18.66372367 -140.86834791 -22.59247192 -160 -26 C-160 -26.66 -160 -27.32 -160 -28 C-105.89508967 -34.16405806 -46.02194676 -33.00563858 0 0 Z " fill="#0B9A57" transform="translate(379,263)"/>
<path d="M0 0 C0.66 0 1.32 0 2 0 C2.01401855 1.1449292 2.01401855 1.1449292 2.02832031 2.31298828 C2.39588032 26.35213378 3.38349003 50.56586168 15.828125 71.8203125 C17 74 17 74 17 76 C17.66 76 18.32 76 19 76 C20.38232443 77.62626404 21.71937515 79.2925002 23 81 C24.98 80.505 24.98 80.505 27 80 C26.375 82.4375 26.375 82.4375 25 85 C20.10045222 86.27025313 15.14915202 86.11785083 10.125 86.0625 C9.34125 86.05798828 8.5575 86.05347656 7.75 86.04882812 C5.83329986 86.03714093 3.91663952 86.01920908 2 86 C1.5565625 85.10023438 1.113125 84.20046875 0.65625 83.2734375 C-0.66165932 80.66870162 -2.03675014 78.14816802 -3.5 75.625 C-12.59803109 59.20482978 -12.33783394 41.1022673 -9 23 C-8.66403686 21.00044008 -8.32995856 19.00055954 -8 17 C-7.34 17 -6.68 17 -6 17 C-5.938125 16.05125 -5.87625 15.1025 -5.8125 14.125 C-5.10828237 8.92872751 -2.47950619 4.54728625 0 0 Z " fill="#85DF43" transform="translate(210,132)"/>
<path d="M0 0 C2.42945868 2.42945868 3.17472215 4.62211734 4.4375 7.8125 C5.68613388 10.96344129 6.91254317 13.85451298 8.66015625 16.76171875 C10 19 10 19 10 21 C10.66 21 11.32 21 12 21 C13.38232443 22.62626404 14.71937515 24.2925002 16 26 C17.32 25.67 18.64 25.34 20 25 C19.375 27.4375 19.375 27.4375 18 30 C13.10045222 31.27025313 8.14915202 31.11785083 3.125 31.0625 C2.34125 31.05798828 1.5575 31.05347656 0.75 31.04882812 C-1.16670014 31.03714093 -3.08336048 31.01920908 -5 31 C-5.44859375 30.07574219 -5.8971875 29.15148437 -6.359375 28.19921875 C-7.95116475 24.9109277 -7.95116475 24.9109277 -10.25 21.8125 C-11.11625 20.4203125 -11.11625 20.4203125 -12 19 C-11.505 17.515 -11.505 17.515 -11 16 C-10.34 16.66 -9.68 17.32 -9 18 C-8.34 17.34 -7.68 16.68 -7 16 C-5.875 19.75 -5.875 19.75 -7 22 C-5.02 21.34 -3.04 20.68 -1 20 C0.03026944 13.30324864 0.10152799 6.7685324 0 0 Z " fill="#8BE04D" transform="translate(217,187)"/>
<path d="M0 0 C1.57726156 3.15452313 0.66986721 5.59484166 0 9 C-0.88285524 11.41033493 -1.90727781 13.67202664 -3 16 C-0.36 16 2.28 16 5 16 C-1.77213417 23.70945378 -13.43736681 27.22599999 -23 30 C-24.14082031 30.33837891 -24.14082031 30.33837891 -25.3046875 30.68359375 C-26.86533306 31.13799858 -28.4318215 31.57231495 -30 32 C-30 31.34 -30 30.68 -30 30 C-29.34 30 -28.68 30 -28 30 C-28 29.34 -28 28.68 -28 28 C-27.21625 27.9175 -26.4325 27.835 -25.625 27.75 C-22.85250896 27.27193661 -22.85250896 27.27193661 -21.6875 24.9375 C-21.460625 24.298125 -21.23375 23.65875 -21 23 C-20.01 23 -19.02 23 -18 23 C-18 22.34 -18 21.68 -18 21 C-17.34 21 -16.68 21 -16 21 C-15.67 20.01 -15.34 19.02 -15 18 C-13.700625 16.9790625 -13.700625 16.9790625 -12.375 15.9375 C-7.92563573 12.42314706 -5.08538603 7.69169525 -2 3 C-1.34 2.01 -0.68 1.02 0 0 Z " fill="#81DE3C" transform="translate(284,190)"/>
<path d="M0 0 C0.45890625 0.39832031 0.9178125 0.79664063 1.390625 1.20703125 C5.31674827 4.60015709 5.31674827 4.60015709 9.4375 7.75 C9.953125 8.1625 10.46875 8.575 11 9 C11 9.66 11 10.32 11 11 C11.680625 11.226875 12.36125 11.45375 13.0625 11.6875 C16.6988709 13.31226146 20.02829263 15.32803257 23 18 C23 18.66 23 19.32 23 20 C17.62094621 19.36209939 12.98952736 17.61751753 8 15.625 C6.82824219 15.16867188 6.82824219 15.16867188 5.6328125 14.703125 C1.30602579 12.99863327 -2.87301141 11.15608699 -7 9 C-6.67 7.35 -6.34 5.7 -6 4 C-5.01 3.67 -4.02 3.34 -3 3 C-1.33289654 1.50014391 -1.33289654 1.50014391 0 0 Z " fill="#96E35C" transform="translate(152,202)"/>
<path d="M0 0 C0 0.33 0 0.66 0 1 C-0.95664551 0.99476318 -1.91329102 0.98952637 -2.89892578 0.98413086 C-6.51838204 0.96574823 -10.13783438 0.95444916 -13.75732422 0.94506836 C-15.31071674 0.94010289 -16.86410475 0.93332827 -18.41748047 0.92456055 C-34.94735869 0.27381304 -34.94735869 0.27381304 -51 3 C-51 3.66 -51 4.32 -51 5 C-50.01 5 -49.02 5 -48 5 C-48.33 5.99 -48.66 6.98 -49 8 C-59.395 6.02 -59.395 6.02 -70 4 C-70 3.34 -70 2.68 -70 2 C-46.59243641 -0.66677424 -23.54116977 -2.25475064 0 0 Z " fill="#4CB988" transform="translate(289,233)"/>
<path d="M0 0 C1.15846436 0.00008057 2.31692871 0.00016113 3.51049805 0.00024414 C17.40658724 0.08970192 31.68619495 0.60777613 45.375 3.1875 C45.375 3.8475 45.375 4.5075 45.375 5.1875 C41.25062418 6.02394299 37.12540082 6.85612838 33 7.6875 C31.824375 7.92597656 30.64875 8.16445312 29.4375 8.41015625 C27.75527344 8.74853516 27.75527344 8.74853516 26.0390625 9.09375 C25.00217285 9.30322266 23.9652832 9.51269531 22.89697266 9.72851562 C20.375 10.1875 20.375 10.1875 18.375 10.1875 C18.375 9.5275 18.375 8.8675 18.375 8.1875 C21.345 7.5275 24.315 6.8675 27.375 6.1875 C27.375 5.5275 27.375 4.8675 27.375 4.1875 C16.75600988 0.64783663 3.62066494 2.0622316 -7.5 2.125 C-9.0742173 2.13003204 -10.64843619 2.13459189 -12.22265625 2.13867188 C-16.02347768 2.1495264 -19.82422056 2.16669398 -23.625 2.1875 C-23.625 1.8575 -23.625 1.5275 -23.625 1.1875 C-15.73601595 0.33461033 -7.93312124 -0.00524254 0 0 Z " fill="#5ABC91" transform="translate(163.625,231.8125)"/>
<path d="M0 0 C0.99 0 1.98 0 3 0 C2.47731534 2.76276177 1.89130413 5.3260876 1 8 C-11.66970387 9.51708428 -11.66970387 9.51708428 -17 7 C-17 6.34 -17 5.68 -17 5 C-6.62642369 1.55580866 -6.62642369 1.55580866 -1 2 C-0.67 1.34 -0.34 0.68 0 0 Z " fill="#80DE39" transform="translate(292,220)"/>
<path d="M0 0 C3 0 3 0 5 1 C5.33 1.66 5.66 2.32 6 3 C6.66 3 7.32 3 8 3 C8 4.32 8 5.64 8 7 C7.34 7 6.68 7 6 7 C6.57344937 9.86724686 6.8614515 10.8614515 9 13 C8.67 13.99 8.34 14.98 8 16 C6.5 14.625 6.5 14.625 5 13 C5 12.34 5 11.68 5 11 C4.34 11 3.68 11 3 11 C1.4921875 9.25 1.4921875 9.25 -0.125 7 C-0.66382813 6.2575 -1.20265625 5.515 -1.7578125 4.75 C-2.16773438 4.1725 -2.57765625 3.595 -3 3 C-2.01 2.67 -1.02 2.34 0 2 C0 1.34 0 0.68 0 0 Z " fill="#8DE151" transform="translate(36,183)"/>
<path d="M0 0 C0.33 0.99 0.66 1.98 1 3 C1.66 3 2.32 3 3 3 C3.66 5.31 4.32 7.62 5 10 C5.66 10 6.32 10 7 10 C11 15.41176471 11 15.41176471 11 18 C9.35 18.33 7.7 18.66 6 19 C6.66 17.68 7.32 16.36 8 15 C6.02 15.33 4.04 15.66 2 16 C2.33 14.02 2.66 12.04 3 10 C1.35 9.67 -0.3 9.34 -2 9 C-1.34 6.03 -0.68 3.06 0 0 Z " fill="#97E35D" transform="translate(141,184)"/>
<path d="M0 0 C2 1.375 2 1.375 4 3 C4 3.66 4 4.32 4 5 C4.66 5 5.32 5 6 5 C7.4375 6.71484375 7.4375 6.71484375 9 8.9375 C11.04816804 11.98632637 11.04816804 11.98632637 14 14 C14 14.66 14 15.32 14 16 C12.35 16.33 10.7 16.66 9 17 C8.67 15.35 8.34 13.7 8 12 C5.03 11.505 5.03 11.505 2 11 C2.33 9.35 2.66 7.7 3 6 C2.34 5.67 1.68 5.34 1 5 C0.375 2.4375 0.375 2.4375 0 0 Z " fill="#96E35F" transform="translate(91,176)"/>
<path d="M0 0 C2.34013344 0.64238957 4.67251306 1.31320058 7 2 C8.423125 2.37125 8.423125 2.37125 9.875 2.75 C10.57625 3.1625 11.2775 3.575 12 4 C12.6875 7.0625 12.6875 7.0625 13 10 C13.66 10.33 14.32 10.66 15 11 C14.67 11.66 14.34 12.32 14 13 C13.01 12.67 12.02 12.34 11 12 C11 11.34 11 10.68 11 10 C10.41734375 9.9175 9.8346875 9.835 9.234375 9.75 C6.33419265 8.77651222 5.19899108 7.33212608 3.25 5 C2.63640625 4.278125 2.0228125 3.55625 1.390625 2.8125 C0 1 0 1 0 0 Z " fill="#97E35B" transform="translate(110,182)"/>
<path d="M0 0 C3.7910119 1.44950455 7.3874638 3.15172566 11 5 C11 5.99 11 6.98 11 8 C7.7 8.33 4.4 8.66 1 9 C1.020625 7.88625 1.04125 6.7725 1.0625 5.625 C1.26380718 2.16784079 1.26380718 2.16784079 0 0 Z " fill="#9FE468" transform="translate(142,220)"/>
<path d="M0 0 C1.20272819 2.40545638 1.10071472 3.94996953 1.0625 6.625 C1.05347656 7.44226563 1.04445313 8.25953125 1.03515625 9.1015625 C1.02355469 9.72804688 1.01195312 10.35453125 1 11 C0.01 10.67 -0.98 10.34 -2 10 C-2 9.01 -2 8.02 -2 7 C-2.66 6.67 -3.32 6.34 -4 6 C-3.01 6 -2.02 6 -1 6 C-1.33 5.34 -1.66 4.68 -2 4 C-5.63 4 -9.26 4 -13 4 C-9.38656695 0.38656695 -4.97659681 -0.29274099 0 0 Z " fill="#9EE566" transform="translate(357,74)"/>
<path d="M0 0 C1.83863505 1.11631414 3.67079723 2.24329627 5.5 3.375 C6.5209375 4.00148437 7.541875 4.62796875 8.59375 5.2734375 C9.3878125 5.84320313 10.181875 6.41296875 11 7 C11 7.66 11 8.32 11 9 C5.23955788 8.39363767 0.27985631 6.24341721 -5 4 C-1.25 2.875 -1.25 2.875 1 4 C0.67 2.68 0.34 1.36 0 0 Z " fill="#AFE57E" transform="translate(164,213)"/>
<path d="M0 0 C0.66 0 1.32 0 2 0 C1.67 1.32 1.34 2.64 1 4 C2.65 3.67 4.3 3.34 6 3 C5 5 5 5 2.34765625 6.0703125 C1.26355469 6.41835937 0.17945313 6.76640625 -0.9375 7.125 C-2.01902344 7.47820312 -3.10054688 7.83140625 -4.21484375 8.1953125 C-7 9 -7 9 -9 9 C-9 8.34 -9 7.68 -9 7 C-8.34 7 -7.68 7 -7 7 C-7 6.34 -7 5.68 -7 5 C-5.824375 4.87625 -5.824375 4.87625 -4.625 4.75 C-1.85250896 4.27193661 -1.85250896 4.27193661 -0.6875 1.9375 C-0.460625 1.298125 -0.23375 0.65875 0 0 Z " fill="#9FE56C" transform="translate(263,213)"/>
<path d="M0 0 C1.59273572 3.18547144 0.76164121 5.60190847 0 9 C-1.8125 11.4375 -1.8125 11.4375 -4 13 C-5.32 13 -6.64 13 -8 13 C-6.53181332 9.89257577 -4.79975 7.09528261 -2.875 4.25 C-2.33617187 3.45078125 -1.79734375 2.6515625 -1.2421875 1.828125 C-0.62730469 0.92320312 -0.62730469 0.92320312 0 0 Z " fill="#8DE150" transform="translate(284,190)"/>
<path d="M0 0 C4.31226893 2.36752019 8.33715165 4.67013786 12 8 C12 8.66 12 9.32 12 10 C10.68 10.33 9.36 10.66 8 11 C7.67 9.35 7.34 7.7 7 6 C2.545 6.495 2.545 6.495 -2 7 C-1.67 6.01 -1.34 5.02 -1 4 C-0.01 3.67 0.98 3.34 2 3 C1.34 2.67 0.68 2.34 0 2 C0 1.34 0 0.68 0 0 Z " fill="#92E156" transform="translate(127,101)"/>
<path d="M0 0 C0.66 1.32 1.32 2.64 2 4 C3.32 4 4.64 4 6 4 C6.33 5.32 6.66 6.64 7 8 C2.27536912 7.53680089 -1.17057052 6.90108294 -5 4 C-5 3.34 -5 2.68 -5 2 C-5.99 1.67 -6.98 1.34 -8 1 C-5.10765685 0.17361624 -3.11257569 0 0 0 Z " fill="#7FDE3A" transform="translate(158,209)"/>
<path d="M0 0 C0.33 0.99 0.66 1.98 1 3 C2.98 2.67 4.96 2.34 7 2 C5.60643954 4.78712092 3.83494327 5.26463329 1.0625 6.625 C0.16660156 7.07101563 -0.72929687 7.51703125 -1.65234375 7.9765625 C-4 9 -4 9 -6 9 C-5.52797514 4.75177626 -3.03344482 2.80010291 0 0 Z " fill="#4BB283" transform="translate(243,205)"/>
<path d="M0 0 C1.485 0.99 1.485 0.99 3 2 C3.99 2 4.98 2 6 2 C8.1875 3 8.1875 3 10 4 C3.5 7 3.5 7 -1 7 C-0.67 4.69 -0.34 2.38 0 0 Z " fill="#27A469" transform="translate(245,201)"/>
<path d="M0 0 C0.66 0 1.32 0 2 0 C2 5.61 2 11.22 2 17 C-0.67927341 12.98108988 -0.15601248 10.75838077 0 6 C-0.99 6.33 -1.98 6.66 -3 7 C-1.125 1.125 -1.125 1.125 0 0 Z " fill="#ADEB7B" transform="translate(210,132)"/>
<path d="M0 0 C0.33 0.66 0.66 1.32 1 2 C2.65 1.34 4.3 0.68 6 0 C5.67 0.99 5.34 1.98 5 3 C4.34 3 3.68 3 3 3 C2.67 3.99 2.34 4.98 2 6 C0.04402816 7.39712274 -1.95436401 8.73779907 -4 10 C-4 8.35 -4 6.7 -4 5 C-2.68 4.34 -1.36 3.68 0 3 C0 2.01 0 1.02 0 0 Z " fill="#8EE050" transform="translate(380,196)"/>
<path d="M0 0 C1.20272819 2.40545638 1.10071472 3.94996953 1.0625 6.625 C1.05347656 7.44226563 1.04445313 8.25953125 1.03515625 9.1015625 C1.02355469 9.72804687 1.01195312 10.35453125 1 11 C-2.13349732 12.04449911 -2.98968256 11.93423645 -6 11 C-5.67 9.68 -5.34 8.36 -5 7 C-4.34 7 -3.68 7 -3 7 C-2.87625 6.401875 -2.7525 5.80375 -2.625 5.1875 C-2 3 -2 3 0 0 Z " fill="#93E255" transform="translate(349,158)"/>
<path d="M0 0 C0.99 0 1.98 0 3 0 C3 0.66 3 1.32 3 2 C3.99 2.33 4.98 2.66 6 3 C4.68 3.33 3.36 3.66 2 4 C2 4.66 2 5.32 2 6 C-2.455 7.485 -2.455 7.485 -7 9 C-5.47005208 7.2421875 -3.94010417 5.484375 -2.41015625 3.7265625 C-0.93041376 2.04367666 -0.93041376 2.04367666 0 0 Z " fill="#9BE363" transform="translate(359,212)"/>
<path d="M0 0 C0.66 0 1.32 0 2 0 C2 0.66 2 1.32 2 2 C2.66 2 3.32 2 4 2 C4 2.66 4 3.32 4 4 C6.65228812 5.07525194 9.28368454 6.09456151 12 7 C12 7.66 12 8.32 12 9 C10.41531323 8.54636829 8.83230076 8.08688548 7.25 7.625 C6.36828125 7.36976563 5.4865625 7.11453125 4.578125 6.8515625 C2.23919428 6.0790066 0.16557438 5.16374324 -2 4 C-1.01 3.67 -0.02 3.34 1 3 C0.67 2.01 0.34 1.02 0 0 Z " fill="#74BDA1" transform="translate(186,206)"/>
<path d="M0 0 C2.6895528 2.6895528 3.69331154 5.45327417 5 9 C4.0022242 11.99332739 3.2477975 12.94766315 1 15 C0.28832014 9.92928099 -0.10662326 5.11791642 0 0 Z " fill="#95E35F" transform="translate(217,187)"/>
<path d="M0 0 C3.465 1.98 3.465 1.98 7 4 C5.25 7.875 5.25 7.875 3 9 C2.34 8.67 1.68 8.34 1 8 C1.020625 7.236875 1.04125 6.47375 1.0625 5.6875 C1.12942841 2.89814214 1.12942841 2.89814214 0 0 Z " fill="#33AA72" transform="translate(375,261)"/>
<path d="M0 0 C2.0625 0.4375 2.0625 0.4375 4 1 C4.12375 1.61875 4.2475 2.2375 4.375 2.875 C4.87197356 5.19120832 4.87197356 5.19120832 7 7 C6.67 7.99 6.34 8.98 6 10 C4.5 8.625 4.5 8.625 3 7 C3 6.34 3 5.68 3 5 C2.34 5 1.68 5 1 5 C0.34 3.68 -0.32 2.36 -1 1 C-0.67 0.67 -0.34 0.34 0 0 Z M4 0 C6 1 6 1 6 1 Z " fill="#9EE463" transform="translate(38,189)"/>
<path d="M0 0 C3 2 3 2 3.6875 4.625 C3.790625 5.40875 3.89375 6.1925 4 7 C-2.15234375 6.4140625 -2.15234375 6.4140625 -4 6 C-4.33 5.34 -4.66 4.68 -5 4 C-3.35 4 -1.7 4 0 4 C0 2.68 0 1.36 0 0 Z " fill="#2DA770" transform="translate(183,202)"/>
<path d="M0 0 C0.66 0.33 1.32 0.66 2 1 C-2.75 4 -2.75 4 -5 4 C-5.33 4.99 -5.66 5.98 -6 7 C-8.64 7.33 -11.28 7.66 -14 8 C-11.52010087 5.14181117 -8.86353122 3.80106607 -5.4375 2.25 C-4.46683594 1.80140625 -3.49617188 1.3528125 -2.49609375 0.890625 C-1.67238281 0.59671875 -0.84867187 0.3028125 0 0 Z " fill="#ABE77B" transform="translate(337,80)"/>
<path d="M0 0 C0 0.66 0 1.32 0 2 C0.598125 1.649375 1.19625 1.29875 1.8125 0.9375 C4 0 4 0 7 1 C2.545 3.97 2.545 3.97 -2 7 C-2.33 6.34 -2.66 5.68 -3 5 C-2.67 4.67 -2.34 4.34 -2 4 C-2.99 3.67 -3.98 3.34 -5 3 C-2.25 0 -2.25 0 0 0 Z " fill="#9AE366" transform="translate(293,199)"/>
<path d="M0 0 C0.99 0.33 1.98 0.66 3 1 C4.1875 3.5625 4.1875 3.5625 5 6 C4.278125 5.773125 3.55625 5.54625 2.8125 5.3125 C-0.75584692 4.91601701 -2.13871099 5.95622213 -5 8 C-3.62845496 5.04590299 -2.01136276 2.55991624 0 0 Z " fill="#53B488" transform="translate(214,15)"/>
<path d="M0 0 C0 0.66 0 1.32 0 2 C-2.31 2.33 -4.62 2.66 -7 3 C-6.67 5.31 -6.34 7.62 -6 10 C-8.55028983 8.72485508 -8.93081711 7.59658703 -10 5 C-10 4.01 -10 3.02 -10 2 C-8.7090864 1.66376204 -7.41723903 1.33110751 -6.125 1 C-5.40570312 0.814375 -4.68640625 0.62875 -3.9453125 0.4375 C-2 0 -2 0 0 0 Z " fill="#B0E783" transform="translate(27,154)"/>
<path d="M0 0 C-2.36944013 2.61885488 -4.83733102 4.41866551 -8 6 C-8.99 5.67 -9.98 5.34 -11 5 C-10.34 4.34 -9.68 3.68 -9 3 C-9 2.34 -9 1.68 -9 1 C-6.04335481 -0.4783226 -3.25770263 -0.06032783 0 0 Z " fill="#9EE466" transform="translate(289,206)"/>
<path d="M0 0 C0.99 0 1.98 0 3 0 C2.35550393 3.01217112 1.34977818 5.51655836 -0.0625 8.25 C-0.42472656 8.95640625 -0.78695313 9.6628125 -1.16015625 10.390625 C-1.43730469 10.92171875 -1.71445312 11.4528125 -2 12 C-2.33 12 -2.66 12 -3 12 C-3 10.02 -3 8.04 -3 6 C-2.01 5.67 -1.02 5.34 0 5 C0 3.35 0 1.7 0 0 Z " fill="#A2E76F" transform="translate(346,134)"/>
<path d="M0 0 C0.33 0.66 0.66 1.32 1 2 C0.525625 2.45375 0.05125 2.9075 -0.4375 3.375 C-2.09027808 4.93258204 -2.09027808 4.93258204 -3 7 C-2.34 7 -1.68 7 -1 7 C-1.33 8.98 -1.66 10.96 -2 13 C-4.12508244 9.81237635 -4.5020163 7.73487777 -5 4 C-3.35 2.68 -1.7 1.36 0 0 Z " fill="#A2E56D" transform="translate(292,108)"/>
<path d="M0 0 C1.48206495 0.254496 2.96068615 0.52911762 4.4375 0.8125 C5.67306641 1.03873047 5.67306641 1.03873047 6.93359375 1.26953125 C7.95646484 1.63111328 7.95646484 1.63111328 9 2 C9.33 2.99 9.66 3.98 10 5 C10.66 5.33 11.32 5.66 12 6 C11.01 6.495 11.01 6.495 10 7 C9.01 6.67 8.02 6.34 7 6 C7 5.34 7 4.68 7 4 C6.21625 3.896875 5.4325 3.79375 4.625 3.6875 C2 3 2 3 0 0 Z " fill="#A0E36E" transform="translate(61,212)"/>
<path d="M0 0 C0.99 0 1.98 0 3 0 C3 0.99 3 1.98 3 3 C3.99 2.67 4.98 2.34 6 2 C6.12375 2.78375 6.2475 3.5675 6.375 4.375 C6.79117993 7.14057822 6.79117993 7.14057822 9 9 C6 9 6 9 4.39453125 7.5390625 C3.61142578 6.59160156 3.61142578 6.59160156 2.8125 5.625 C2.28269531 4.99851563 1.75289063 4.37203125 1.20703125 3.7265625 C0 2 0 2 0 0 Z " fill="#A3E46E" transform="translate(102,172)"/>
<path d="M0 0 C0.66 0.33 1.32 0.66 2 1 C1.01 1.33 0.02 1.66 -1 2 C-1 2.66 -1 3.32 -1 4 C1.97 4.495 1.97 4.495 5 5 C1.18510326 6.46726798 -1.29011622 5.43336419 -5 4 C-5 3.34 -5 2.68 -5 2 C-2.625 0.9375 -2.625 0.9375 0 0 Z " fill="#ACE67D" transform="translate(280,223)"/>
<path d="M0 0 C1.45823212 -0.0270043 2.91660675 -0.04639787 4.375 -0.0625 C5.18710938 -0.07410156 5.99921875 -0.08570313 6.8359375 -0.09765625 C9 0 9 0 11 1 C11 1.66 11 2.32 11 3 C9.35333797 2.8864371 7.70763918 2.75882619 6.0625 2.625 C5.14597656 2.55539063 4.22945313 2.48578125 3.28515625 2.4140625 C2.15400391 2.20910156 2.15400391 2.20910156 1 2 C0.67 1.34 0.34 0.68 0 0 Z " fill="#A1E46C" transform="translate(104,228)"/>
<path d="M0 0 C-0.33 0.99 -0.66 1.98 -1 3 C1.475 3.99 1.475 3.99 4 5 C-0.00200378 6.60080151 -3.04556236 5.29279692 -7 4 C-3.375 0 -3.375 0 0 0 Z " fill="#9FE46E" transform="translate(98,223)"/>
<path d="M0 0 C0.33 0 0.66 0 1 0 C1 3.3 1 6.6 1 10 C0.01 9.01 -0.98 8.02 -2 7 C-2 6.01 -2 5.02 -2 4 C-2.66 4 -3.32 4 -4 4 C-3.67 3.01 -3.34 2.02 -3 1 C-2.01 1.33 -1.02 1.66 0 2 C0 1.34 0 0.68 0 0 Z " fill="#A3E471" transform="translate(84,134)"/>
<path d="M0 0 C0.33 0 0.66 0 1 0 C0.67 4.29 0.34 8.58 0 13 C-2 11 -2 11 -2.25 7.625 C-2.02515633 4.36476676 -1.7239511 2.69367359 0 0 Z " fill="#A0E26A" transform="translate(357,93)"/>
<path d="M0 0 C0 0.66 0 1.32 0 2 C-0.66 2 -1.32 2 -2 2 C-2.33 3.65 -2.66 5.3 -3 7 C-5.97 6.505 -5.97 6.505 -9 6 C-7.625 4.5 -7.625 4.5 -6 3 C-5.34 3 -4.68 3 -4 3 C-4 2.34 -4 1.68 -4 1 C-2 0 -2 0 0 0 Z " fill="#9DE369" transform="translate(311,95)"/>
<path d="M0 0 C-0.33 0.99 -0.66 1.98 -1 3 C-4.63 3 -8.26 3 -12 3 C-8.40198016 -0.59801984 -4.84291279 -0.09137571 0 0 Z " fill="#96E05C" transform="translate(356,75)"/>
<path d="M0 0 C1.485 0.99 1.485 0.99 3 2 C3.66 1.34 4.32 0.68 5 0 C6.10844919 3.32534757 5.84454356 5.62182575 5 9 C2.9754262 7.06745228 1.57894208 5.36841312 0 3 C0 2.01 0 1.02 0 0 Z " fill="#A0E36C" transform="translate(205,203)"/>
<path d="M0 0 C0.33 0.66 0.66 1.32 1 2 C1.99 1.67 2.98 1.34 4 1 C2.87994369 4.36016893 1.62788203 5.69064913 -1 8 C-1.66 8 -2.32 8 -3 8 C-1.125 2.25 -1.125 2.25 0 0 Z " fill="#96E35E" transform="translate(311,184)"/>
<path d="M0 0 C1.25 1.5625 1.25 1.5625 2 4 C0.93237266 6.57001015 -0.46544943 8.6530403 -2 11 C-2.66 11 -3.32 11 -4 11 C-3.33333333 8.33333333 -2.66666667 5.66666667 -2 3 C-1.34 3 -0.68 3 0 3 C0 2.01 0 1.02 0 0 Z " fill="#4CB384" transform="translate(160,105)"/>
<path d="M0 0 C1.53445094 3.06890187 0.54984289 5.70094266 0 9 C-0.99 8.67 -1.98 8.34 -3 8 C-3.99 8.495 -3.99 8.495 -5 9 C-3.50163895 5.88801935 -1.80066242 2.9465385 0 0 Z " fill="#9FE36E" transform="translate(284,190)"/>
<path d="M0 0 C0.66 0 1.32 0 2 0 C2 2.64 2 5.28 2 8 C1.67 6.68 1.34 5.36 1 4 C0.34 4 -0.32 4 -1 4 C-1.33 4.99 -1.66 5.98 -2 7 C-2.33 6.01 -2.66 5.02 -3 4 C-1.6875 1.8125 -1.6875 1.8125 0 0 Z " fill="#90DE54" transform="translate(208,138)"/>
<path d="M0 0 C2.71224618 1.61268692 5.37352812 3.24901874 8 5 C8 5.66 8 6.32 8 7 C6.68 7.33 5.36 7.66 4 8 C3.71125 7.195625 3.4225 6.39125 3.125 5.5625 C2.26737432 2.8673532 2.26737432 2.8673532 0 2 C0 1.34 0 0.68 0 0 Z " fill="#A6E776" transform="translate(131,104)"/>
<path d="M0 0 C2.31 1.65 4.62 3.3 7 5 C6.67 5.66 6.34 6.32 6 7 C3 7 3 7 0 6 C0 4 0 2 0 0 Z " fill="#9CE267" transform="translate(105,192)"/>
<path d="M0 0 C0.66 0 1.32 0 2 0 C2 1.65 2 3.3 2 5 C2.66 5 3.32 5 4 5 C4 5.66 4 6.32 4 7 C3.01 7.33 2.02 7.66 1 8 C0.34 7.34 -0.32 6.68 -1 6 C-0.625 2.875 -0.625 2.875 0 0 Z " fill="#8AE054" transform="translate(323,167)"/>
<path d="M0 0 C1.48280196 0.78483659 2.9611498 1.57809334 4.4375 2.375 C5.67306641 3.03628906 5.67306641 3.03628906 6.93359375 3.7109375 C9 5 9 5 10 7 C9.401875 6.835 8.80375 6.67 8.1875 6.5 C5.88655664 5.8885876 5.88655664 5.8885876 3 6 C2.67 4.68 2.34 3.36 2 2 C1.34 2 0.68 2 0 2 C0 1.34 0 0.68 0 0 Z " fill="#9EE46D" transform="translate(112,91)"/>
<path d="M0 0 C0.625 1.875 0.625 1.875 1 4 C0.34 4.66 -0.32 5.32 -1 6 C-1.33 5.34 -1.66 4.68 -2 4 C-3.65 4 -5.3 4 -7 4 C-7 3.34 -7 2.68 -7 2 C-2.25 0 -2.25 0 0 0 Z " fill="#93E353" transform="translate(319,199)"/>
<path d="M0 0 C3.63 0.33 7.26 0.66 11 1 C11.33 2.32 11.66 3.64 12 5 C7.84747749 3.47740841 3.9622724 1.9811362 0 0 Z " fill="#ACE77D" transform="translate(68,155)"/>
<path d="M0 0 C0.33 1.32 0.66 2.64 1 4 C0.38125 4.268125 -0.2375 4.53625 -0.875 4.8125 C-3.2995233 5.95556848 -3.2995233 5.95556848 -5 9 C-5.66 9 -6.32 9 -7 9 C-7 8.34 -7 7.68 -7 7 C-6.34 7 -5.68 7 -5 7 C-4.67 6.01 -4.34 5.02 -4 4 C-2.70644173 2.62804426 -1.37701298 1.28817344 0 0 Z " fill="#A3E475" transform="translate(273,204)"/>
<path d="M0 0 C2.97 0.495 2.97 0.495 6 1 C3.82575883 3.50037734 2.26954202 4.43628586 -1 5 C-0.67 3.35 -0.34 1.7 0 0 Z " fill="#9CE569" transform="translate(272,211)"/>
<path d="M0 0 C2.475 0.99 2.475 0.99 5 2 C5 2.66 5 3.32 5 4 C3.35 4.33 1.7 4.66 0 5 C-0.5625 3.0625 -0.5625 3.0625 -1 1 C-0.67 0.67 -0.34 0.34 0 0 Z " fill="#92E157" transform="translate(100,188)"/>
<path d="M0 0 C-1.29299694 2.88437779 -2.65941363 4.87219421 -5 7 C-5.6875 5.1875 -5.6875 5.1875 -6 3 C-4.04862098 0.26806937 -3.44686768 0 0 0 Z " fill="#9BE35F" transform="translate(395,185)"/>
<path d="M0 0 C1.65 1.32 3.3 2.64 5 4 C4.67 4.66 4.34 5.32 4 6 C1.69 5.34 -0.62 4.68 -3 4 C-2.67 3.34 -2.34 2.68 -2 2 C-1.34 2 -0.68 2 0 2 C0 1.34 0 0.68 0 0 Z " fill="#A2E569" transform="translate(97,183)"/>
<path d="M0 0 C2.64 0 5.28 0 8 0 C7.67 0.99 7.34 1.98 7 3 C4.69 2.67 2.38 2.34 0 2 C0 1.34 0 0.68 0 0 Z " fill="#74BC9C" transform="translate(219,235)"/>
<path d="M0 0 C0.33 0.66 0.66 1.32 1 2 C1.66 2.33 2.32 2.66 3 3 C0.69 3.66 -1.62 4.32 -4 5 C-4 4.34 -4 3.68 -4 3 C-3.34 3 -2.68 3 -2 3 C-2 2.34 -2 1.68 -2 1 C-1.34 0.67 -0.68 0.34 0 0 Z " fill="#BAE793" transform="translate(258,217)"/>
<path d="M0 0 C0.33 0.66 0.66 1.32 1 2 C2.65 1.34 4.3 0.68 6 0 C5.67 0.99 5.34 1.98 5 3 C4.34 3 3.68 3 3 3 C2.67 3.99 2.34 4.98 2 6 C0 3 0 3 0 0 Z " fill="#A6E46B" transform="translate(380,196)"/>
<path d="M0 0 C1.65 0 3.3 0 5 0 C4.67 1.98 4.34 3.96 4 6 C2.62437146 4.71034824 1.29233607 3.37310707 0 2 C0 1.34 0 0.68 0 0 Z " fill="#A9E979" transform="translate(29,179)"/>
<path d="M0 0 C1.32 0.66 2.64 1.32 4 2 C2.625 4 2.625 4 1 6 C0.34 6 -0.32 6 -1 6 C-1.042721 4.33388095 -1.04063832 2.66617115 -1 1 C-0.67 0.67 -0.34 0.34 0 0 Z " fill="#94E263" transform="translate(320,175)"/>
<path d="M0 0 C0.66 0.33 1.32 0.66 2 1 C1.625 3.4375 1.625 3.4375 1 6 C0.01 6.495 0.01 6.495 -1 7 C-1.625 5.1875 -1.625 5.1875 -2 3 C-1.34 2.01 -0.68 1.02 0 0 Z " fill="#95E35B" transform="translate(330,162)"/>
<path d="M0 0 C4.455 0.99 4.455 0.99 9 2 C8.67 2.99 8.34 3.98 8 5 C8 4.34 8 3.68 8 3 C5.69 3 3.38 3 1 3 C0.67 2.01 0.34 1.02 0 0 Z " fill="#A2E374" transform="translate(402,154)"/>
<path d="M0 0 C0.6875 1.75 0.6875 1.75 1 4 C-0.3125 6.25 -0.3125 6.25 -2 8 C-2.66 8 -3.32 8 -4 8 C-2.25 2.25 -2.25 2.25 0 0 Z " fill="#56BA8A" transform="translate(199,36)"/>
</svg>
